<?xml version="1.0" standalone="no"?><!DOCTYPE svg PUBLIC "-//W3C//DTD SVG 1.1//EN" "http://www.w3.org/Graphics/SVG/1.1/DTD/svg11.dtd"><svg t="1673331415238" class="icon" viewBox="0 0 1024 1024" version="1.1" xmlns="http://www.w3.org/2000/svg" p-id="2434" xmlns:xlink="http://www.w3.org/1999/xlink" width="200" height="200"><path d="M480 128a352.128 352.128 0 0 1 343.872 276.544l7.68 3.328 11.52 5.44 11.52 6.208 7.872 4.736 15.36 10.176 3.328 2.368a280.32 280.32 0 0 1 41.728 38.016l11.392 13.568 6.272 8.32 8.32 12.16 8.128 13.504 8.064 15.488 5.44 11.968 4.544 11.456 4.8 14.08 5.248 19.648 2.56 12.16 2.24 15.04 1.536 16.064 0.576 17.728-0.128 8.832-0.832 14.016-1.92 16.96-2.24 12.8-1.92 9.088a254.976 254.976 0 0 1-11.52 37.12l-5.056 12.16-6.336 13.248-8.384 15.168-9.472 14.72-11.328 15.232-11.52 13.568a271.296 271.296 0 0 1-188.16 88.768l-13.184 0.32H256l-12.288-0.32a224 224 0 0 1-113.6-408.96A352 352 0 0 1 480 128z m0 64A288 288 0 0 0 192 480l0.448 16 1.28 15.68 4.224 38.272-31.808 21.632A159.744 159.744 0 0 0 96 704c0 81.536 61.184 149.312 139.2 158.784l10.24 0.896L256 864h462.464l11.648-0.256a207.296 207.296 0 0 0 172.224-107.584l3.2-6.08 5.888-12.608a206.72 206.72 0 0 0 7.68-21.248l2.88-10.368 2.496-11.52 1.92-12.096 1.216-13.056 0.256-6.4a209.28 209.28 0 0 0-0.448-22.144l-1.28-12.288-1.408-9.088a207.488 207.488 0 0 0-21.888-62.464l-6.016-10.368-7.04-10.56-7.104-9.6 3.84 5.12a209.536 209.536 0 0 0-30.464-32.768l-7.744-6.4-8.704-6.4-9.6-6.4-10.752-6.272a208.128 208.128 0 0 0-237.12 27.072l-9.216 8.704-45.248-45.248a271.488 271.488 0 0 1 224.512-77.76A288 288 0 0 0 480 192z" p-id="2435"></path></svg>
