<?xml version="1.0" standalone="no"?><!DOCTYPE svg PUBLIC "-//W3C//DTD SVG 1.1//EN" "http://www.w3.org/Graphics/SVG/1.1/DTD/svg11.dtd"><svg t="1670569024783" class="icon" viewBox="0 0 1024 1024" version="1.1" xmlns="http://www.w3.org/2000/svg" p-id="5983" xmlns:xlink="http://www.w3.org/1999/xlink" width="200" height="200"><path d="M477.76 192a64 64 0 0 1 53.248 28.48L597.344 320H832a64 64 0 0 1 64 64v384a64 64 0 0 1-64 64H192a64 64 0 0 1-64-64V256a64 64 0 0 1 64-64h285.76zM832 384H192v384h640V384z m-465.184 128v33.536l32.064-18.56 17.12 28.16-33.984 19.2L416 596.16l-17.12 27.2-32.064-20.416V640h-31.328v-37.056l-31.36 17.12-16.128-27.2 32.064-18.496L288 555.136l18.336-28.16 29.152 18.56V512h31.36z m160 0v33.536l32.064-18.56 17.12 28.16-33.984 19.2L576 596.16l-17.12 27.2-32.064-20.416V640h-31.328v-37.056l-31.36 17.12-16.128-27.2 32.064-18.496L448 555.136l18.336-28.16 29.152 18.56V512h31.36z m160 0v33.536l32.064-18.56 17.12 28.16-33.984 19.2L736 596.16l-17.12 27.2-32.064-20.416V640h-31.328v-37.056l-31.36 17.12-16.128-27.2 32.064-18.496L608 555.136l18.336-28.16 29.152 18.56V512h31.36zM477.76 256H192v64h328.416L477.76 256z" p-id="5984"></path></svg>