<?xml version="1.0" standalone="no"?><!DOCTYPE svg PUBLIC "-//W3C//DTD SVG 1.1//EN" "http://www.w3.org/Graphics/SVG/1.1/DTD/svg11.dtd"><svg t="1673249804105" class="icon" viewBox="0 0 1024 1024" version="1.1" xmlns="http://www.w3.org/2000/svg" p-id="3739" xmlns:xlink="http://www.w3.org/1999/xlink" width="200" height="200"><path d="M810.666667 597.333333a213.333333 213.333333 0 1 1-213.333334 213.333334 38.826667 38.826667 0 1 1 77.568 0A135.765333 135.765333 0 1 0 810.666667 674.901333 38.826667 38.826667 0 0 1 810.666667 597.333333z" p-id="3740"></path><path d="M649.173333 600.362667l150.528-90.325334a21.333333 21.333333 0 0 1 32.298667 18.346667v180.608a21.333333 21.333333 0 0 1-32.298667 18.304l-150.528-90.325333a21.333333 21.333333 0 0 1 0-36.608z" p-id="3741"></path><path d="M682.666667 0a42.666667 42.666667 0 0 1 25.941333 8.789333l4.266667 3.712 207.061333 207.061334a64 64 0 0 1 18.432 38.954666l0.298667 6.314667V469.333333a42.666667 42.666667 0 0 1-85.034667 4.992L853.333333 469.333333V273.664L664.96 85.333333H170.666667v853.333334h341.333333a42.666667 42.666667 0 0 1 42.368 37.674666L554.666667 981.333333a42.666667 42.666667 0 0 1-37.674667 42.368L512 1024H149.333333a64 64 0 0 1-63.701333-57.856L85.333333 960v-896A64 64 0 0 1 143.189333 0.298667L149.333333 0H682.666667z" p-id="3742"></path><path d="M298.666667 512h213.333333v85.333333H298.666667zM298.666667 341.333333h426.666666v85.333334H298.666667zM298.666667 682.666667h170.666666v85.333333H298.666667z" p-id="3743"></path></svg>
